<?xml version="1.0" encoding="UTF-8"?>
<svg width="32" height="32" viewBox="0 0 32 32" fill="none" xmlns="http://www.w3.org/2000/svg">
  <circle cx="16" cy="16" r="16" fill="#8247E5"/>
  <path d="M21.092 13.12c-.483-.277-1.12-.277-1.675-.069l-3.423 1.95-2.317 1.326-3.35 1.95c-.483.277-1.12.277-1.675.07-.555-.208-.968-.692-.968-1.326V13.95c0-.554.34-1.119.968-1.326.483-.277 1.12-.277 1.675-.07l3.35 1.95 2.317-1.326-3.35-1.95c-.483-.277-1.12-.277-1.675-.069-.555.208-.968.692-.968 1.326v7.07c0 .554.34 1.119.968 1.326.483.277 1.12.277 1.675.07l3.423-1.95 2.317-1.326 3.35-1.95c.483-.277 1.12-.277 1.675-.07.555.208.968.692.968 1.326v3.071c0 .554-.34 1.119-.968 1.326-.483.277-1.12.277-1.675.07l-3.35-1.95-2.317 1.326 3.35 1.95c.483.277 1.12.277 1.675.07.555-.208.968-.692.968-1.326v-7.07c0-.554-.34-1.119-.968-1.326z" fill="#fff"/>
</svg> 